<svg width="100" height="100" viewBox="0 0 100 100" fill="none" xmlns="http://www.w3.org/2000/svg">
<rect width="100" height="100" rx="48" fill="#E1F2E9"/>
<path d="M53.682 74C53.5487 74 53.3487 73.95 53.082 73.85C44.482 70.7833 38.432 65.5167 34.932 58.05C34.6987 57.5833 34.4987 57.1 34.332 56.6C34.1654 56.1 33.9987 55.6333 33.832 55.2C33.0987 55.2667 32.382 55.3333 31.682 55.4C30.982 55.4333 30.282 55.45 29.582 55.45H28.332C26.332 62.7167 23.382 67.1 19.482 68.6C18.782 68.8667 18.0487 69.0833 17.282 69.25C16.5154 69.4167 15.6987 69.5 14.832 69.5H14.682C13.4487 69.5 12.832 69 12.832 68C12.832 67.2 13.082 66.8 13.582 66.8C13.6487 66.8 14.082 67.1 14.882 67.7C15.682 68.3 16.4654 68.6 17.232 68.6C20.332 68.6 23.2987 64.15 26.132 55.25L24.182 54.95C22.5154 60.2167 20.8654 63.7667 19.232 65.6C19.0654 65.7667 18.9154 65.85 18.782 65.85C18.682 65.85 18.632 65.7667 18.632 65.6C18.632 65.4667 18.6987 65.3167 18.832 65.15C19.5987 64.25 20.3654 62.9333 21.132 61.2C21.8987 59.4667 22.6487 57.3167 23.382 54.75C20.982 54.0833 19.232 53.0667 18.132 51.7C17.432 50.7333 17.082 49.7 17.082 48.6C17.082 47.3 17.732 45.9 19.032 44.4C20.332 42.9 21.5154 42.15 22.582 42.15C22.8154 42.15 22.9487 42.2 22.982 42.3C22.9487 42.3 22.9154 42.3167 22.882 42.35C20.082 43.6833 18.682 45.3333 18.682 47.3C18.682 48.3 19.0154 49.2833 19.682 50.25C20.5487 51.55 21.9154 52.6167 23.782 53.45C24.0487 52.45 24.2987 51.45 24.532 50.45C24.7654 49.4167 24.9987 48.3833 25.232 47.35C25.032 47.55 24.782 47.7667 24.482 48C24.2154 48.2333 23.8987 48.4833 23.532 48.75C22.932 48.35 22.632 47.7333 22.632 46.9C22.632 46.5667 22.8154 46.15 23.182 45.65C23.5487 45.1167 23.8654 44.85 24.132 44.85C24.432 45.95 24.8487 46.5667 25.382 46.7C25.5487 46.0333 25.682 45.4 25.782 44.8C25.9154 44.1667 26.0154 43.6 26.082 43.1C26.282 41.6 26.432 40.2 26.532 38.9C26.6654 37.6 26.732 36.3833 26.732 35.25C26.732 34.7833 26.7154 34.3333 26.682 33.9C26.682 33.4667 26.6654 33.05 26.632 32.65C24.9654 33.35 23.6154 33.9 22.582 34.3C21.5487 34.7 20.8487 34.9667 20.482 35.1C18.182 35.9 16.1654 36.3 14.432 36.3C13.0654 36.3 11.8654 35.9 10.832 35.1C9.83203 34.2667 9.33203 33.1833 9.33203 31.85C9.33203 31.2167 9.43203 30.5833 9.63203 29.95C9.86536 29.2833 10.182 28.6 10.582 27.9C10.7487 27.6667 10.9154 27.55 11.082 27.55C11.2154 27.55 11.282 27.6333 11.282 27.8C11.282 27.8 11.0487 28.2333 10.582 29.1C10.3487 29.4667 10.182 29.85 10.082 30.25C10.0154 30.6167 9.98203 30.9833 9.98203 31.35C9.98203 33.3167 11.182 34.3 13.582 34.3C14.3487 34.3 15.2654 34.2167 16.332 34.05C17.432 33.8833 18.6654 33.5833 20.032 33.15L26.382 31.1C25.782 27.6667 24.3154 25.95 21.982 25.95C21.8487 25.95 21.7154 25.95 21.582 25.95C21.482 25.95 21.3654 25.9667 21.232 26C22.132 26.4 22.582 27.1167 22.582 28.15C22.582 29.1167 22.282 29.75 21.682 30.05C21.382 28.05 20.382 27.1167 18.682 27.25C19.2154 26.05 20.332 25.45 22.032 25.45C24.732 25.45 26.4987 27.25 27.332 30.85C30.732 29.85 33.6654 29.35 36.132 29.35C36.2654 29.35 36.3987 29.35 36.532 29.35C36.6987 29.35 36.8487 29.3667 36.982 29.4C39.0487 27.5333 40.982 26.6 42.782 26.6C43.582 26.6 44.3987 26.9 45.232 27.5C46.0654 28 46.482 28.65 46.482 29.45C46.482 30.05 46.332 30.35 46.032 30.35C45.9654 30.35 45.532 29.8667 44.732 28.9C43.9987 27.9333 43.082 27.45 41.982 27.45C40.5487 27.45 39.182 28.1167 37.882 29.45C41.6154 29.6833 44.682 30.6833 47.082 32.45C49.9154 34.55 51.332 37.3667 51.332 40.9C51.332 42.8667 50.7487 44.8167 49.582 46.75C47.0487 50.95 42.582 53.65 36.182 54.85C36.8487 56.7167 37.8154 58.55 39.082 60.35C40.382 62.1167 41.9654 63.85 43.832 65.55C47.6987 69.05 51.2154 70.8 54.382 70.8C56.7154 70.8 57.882 69.85 57.882 67.95C57.882 67.75 57.832 67.4667 57.732 67.1C57.6654 66.7333 57.632 66.4833 57.632 66.35C57.632 66.25 57.6654 66.2 57.732 66.2C57.9987 66.2 58.182 66.55 58.282 67.25C58.3487 67.5167 58.3987 67.75 58.432 67.95C58.4987 68.1833 58.532 68.3833 58.532 68.55C58.532 70.5167 57.3487 71.5 54.982 71.5H54.632C54.532 71.4667 54.4154 71.45 54.282 71.45C53.7154 71.45 53.432 71.65 53.432 72.05C53.432 72.25 53.5154 72.55 53.682 72.95C53.8487 73.35 53.932 73.6167 53.932 73.75C53.932 73.9167 53.8487 74 53.682 74ZM26.382 54.25C26.7487 53.0833 27.0987 51.8333 27.432 50.5C27.7987 49.1667 28.1487 47.7333 28.482 46.2C30.1487 39.1333 32.732 33.7667 36.232 30.1C35.0987 30.1333 33.7987 30.3333 32.332 30.7C30.8987 31.0667 29.3154 31.5833 27.582 32.25C27.6487 32.7833 27.6987 33.3167 27.732 33.85C27.7654 34.3833 27.782 34.9667 27.782 35.6C27.782 36.8667 27.6987 38.25 27.532 39.75C27.3987 41.25 27.1654 42.8333 26.832 44.5C26.5654 45.9333 26.2487 47.4167 25.882 48.95C25.5154 50.4833 25.0654 52.1 24.532 53.8L26.382 54.25ZM30.332 54.7C30.8987 54.7 31.4487 54.6833 31.982 54.65C32.5487 54.6167 33.0987 54.5667 33.632 54.5C33.432 53.7 33.332 52.95 33.332 52.25C33.332 51.9833 33.3654 51.6833 33.432 51.35C33.532 50.9167 33.8154 50.3333 34.282 49.6C34.782 48.8333 35.2154 48.45 35.582 48.45C35.782 48.45 35.932 48.5833 36.032 48.85C35.6654 49.5833 35.482 50.3833 35.482 51.25C35.482 51.6833 35.5154 52.15 35.582 52.65C35.682 53.1167 35.8154 53.6 35.982 54.1C41.3487 53 45.132 50.4167 47.332 46.35C48.332 44.55 48.832 42.7 48.832 40.8C48.832 37.5 47.682 34.8833 45.382 32.95C43.282 31.15 40.5654 30.2 37.232 30.1C35.4987 32.3 33.782 36.1333 32.082 41.6C31.9487 42 31.582 43.2833 30.982 45.45C30.4154 47.6167 29.6154 50.6667 28.582 54.6C28.882 54.6333 29.182 54.6667 29.482 54.7C29.782 54.7 30.0654 54.7 30.332 54.7ZM83.2055 39.2C82.8721 39.1667 82.6721 37.95 82.6055 35.55C82.7388 34.8833 83.0055 34.0167 83.4055 32.95C83.8055 31.85 84.3721 30.5667 85.1055 29.1C85.3055 29.0333 85.4555 29 85.5555 29C86.1555 29 86.4555 29.6167 86.4555 30.85C86.1221 31.3833 85.7888 31.9333 85.4555 32.5C85.1221 33.0333 84.8055 33.5667 84.5055 34.1C83.6055 35.8333 83.1721 37.5333 83.2055 39.2ZM69.1555 72C64.0555 72 60.1055 70.7833 57.3055 68.35C55.0055 66.2833 53.8555 63.65 53.8555 60.45C53.8555 56.85 55.3388 53.9167 58.3055 51.65C60.9721 49.5833 64.0221 48.5333 67.4555 48.5C70.3221 48.5 72.5721 49.2333 74.2055 50.7C75.6388 52.0333 76.3555 53.6667 76.3555 55.6C76.3555 57.5667 75.6555 59.25 74.2555 60.65C72.6555 62.1833 70.6221 62.95 68.1555 62.95C67.8555 62.95 67.7055 62.9 67.7055 62.8C67.7055 62.6 67.8555 62.4833 68.1555 62.45C69.2221 62.2167 70.1721 61.8833 71.0055 61.45C71.8721 61.0167 72.6055 60.45 73.2055 59.75C74.3388 58.5167 74.9055 57.0833 74.9055 55.45C74.9055 53.65 74.2555 52.1833 72.9555 51.05C71.6221 49.8167 69.8555 49.2 67.6555 49.2C64.6555 49.2 62.0221 50.1833 59.7555 52.15C57.2888 54.2167 56.0555 56.85 56.0555 60.05C56.0555 63.1833 57.0055 65.7 58.9055 67.6C61.1055 69.9333 64.4055 71.1 68.8055 71.1C73.1055 71.1 76.7055 69.8167 79.6055 67.25C82.7721 64.5167 84.3555 61.0667 84.3555 56.9C84.3555 53.8667 83.1888 50.9833 80.8555 48.25L75.4055 42.65C74.4055 41.6167 73.6721 40.6 73.2055 39.6C72.7721 38.5667 72.5555 37.5833 72.5555 36.65C72.5555 34.5833 73.3555 32.9333 74.9555 31.7C76.4888 30.4667 78.2721 29.85 80.3055 29.85C81.1055 29.85 81.9055 29.9667 82.7055 30.2C83.5055 30.4333 83.9055 30.7167 83.9055 31.05C83.9055 31.2167 83.8055 31.3 83.6055 31.3C83.5055 31.3 83.1055 31.15 82.4055 30.85C81.8388 30.6167 81.2555 30.5 80.6555 30.5C79.1555 30.5 77.8221 31.05 76.6555 32.15C75.5221 33.2833 74.9555 34.5833 74.9555 36.05C74.9555 37.7167 75.7388 39.3833 77.3055 41.05L82.4055 45.8C84.0388 47.3 85.2388 48.9333 86.0055 50.7C86.8055 52.4333 87.2055 54.2667 87.2055 56.2C87.2055 60.6667 85.2888 64.4667 81.4555 67.6C77.8555 70.5333 73.7555 72 69.1555 72ZM81.2055 55.6C81.0388 55.6667 80.9555 55.5667 80.9555 55.3C80.7221 53.6667 80.0555 52 78.9555 50.3C78.8888 50.8 78.7888 51.3667 78.6555 52C78.0221 52.1 77.4555 51.8833 76.9555 51.35C76.8888 51.25 76.8055 51.1 76.7055 50.9C76.6388 50.7 76.6055 50.4667 76.6055 50.2V49.85C76.6055 49.4833 76.6555 49.2333 76.7555 49.1C77.4555 49.6 78.0388 49.8 78.5055 49.7C77.7388 48.6 76.8555 47.6 75.8555 46.7C74.8555 45.7667 73.7721 44.9333 72.6055 44.2C70.1721 42.7333 68.0221 42 66.1555 42C64.1555 42 62.7721 42.8333 62.0055 44.5C62.3721 44.2333 62.7388 44.1 63.1055 44.1C63.5055 44.1 63.8888 44.2167 64.2555 44.45C64.9221 44.9167 65.2388 45.45 65.2055 46.05C64.7721 45.85 64.3055 45.75 63.8055 45.75C62.8721 45.75 62.1888 46.15 61.7555 46.95C61.3888 46.3833 61.2055 45.9 61.2055 45.5C61.2055 45 61.4388 44.3833 61.9055 43.65C62.8721 42.05 64.3721 41.25 66.4055 41.25C69.4388 41.25 72.5721 42.75 75.8055 45.75C77.4721 47.2167 78.8221 48.7333 79.8555 50.3C80.8888 51.8333 81.4055 53.4333 81.4055 55.1V55.25C81.4055 55.4167 81.3388 55.5333 81.2055 55.6Z" fill="#2D4F40"/>
</svg>
